<svg width="54" height="54" viewBox="0 0 54 54" fill="none" xmlns="http://www.w3.org/2000/svg">
<path fill-rule="evenodd" clip-rule="evenodd" d="M27 54C41.9117 54 54 41.9117 54 27C54 12.0883 41.9117 0 27 0C12.0883 0 0 12.0883 0 27C0 41.9117 12.0883 54 27 54ZM34.1698 25.6409C34.3117 25.7017 34.4517 25.7653 34.5895 25.8314C36.5378 26.766 37.9627 28.1812 38.71 29.9235C39.7517 32.3532 39.8468 36.311 36.6863 39.4685C34.2707 41.882 31.3383 42.9712 27.1783 43H27.1595C22.4803 42.9677 18.882 41.393 16.4647 38.3202C14.3137 35.5857 13.2041 31.7807 13.1668 27.0112L13.1667 27L13.1668 26.9888C13.2041 22.2193 14.3137 18.4144 16.4647 15.6799C18.882 12.607 22.4803 11.0324 27.1595 11H27.1783C31.867 11.0325 35.506 12.6011 37.9942 15.6623C39.2218 17.1726 40.124 18.9937 40.6973 21.107L38.0062 21.8251C37.5332 20.1081 36.8157 18.6356 35.864 17.4647C33.9232 15.0769 30.998 13.8519 27.1689 13.8234C23.3673 13.8517 20.4923 15.0708 18.623 17.4471C16.8726 19.6723 15.968 22.8863 15.9342 27C15.968 31.1137 16.8726 34.3277 18.623 36.5528C20.4923 38.9292 23.3674 40.1483 27.1689 40.1765C30.596 40.1513 32.8637 39.336 34.7502 37.4513C36.9033 35.3 36.8632 32.6612 36.1745 31.0553C35.7695 30.1107 35.0362 29.3248 34.0467 28.7277C33.8057 30.5238 33.2598 31.9493 32.3968 33.0493C31.2605 34.4978 29.6317 35.29 27.5554 35.4038C25.9832 35.4897 24.4704 35.1105 23.2958 34.3352C21.9066 33.418 21.0936 32.014 21.0066 30.382C20.8352 27.1646 23.3875 24.8492 27.3575 24.6206C28.7668 24.5397 30.0852 24.6035 31.3042 24.8106C31.1423 23.8208 30.8155 23.0366 30.3268 22.469C29.6553 21.6894 28.6178 21.2897 27.2429 21.2809L27.2048 21.2808C26.1009 21.2808 24.6019 21.5897 23.6468 23.0388L21.3503 21.4634C22.6289 19.5235 24.7061 18.4574 27.2037 18.4574L27.2603 18.4575C31.436 18.4842 33.9228 21.0897 34.1698 25.6409ZM23.7699 30.2287C23.8591 31.9015 25.6667 32.6825 27.4067 32.5845C29.1103 32.491 31.044 31.8225 31.3737 27.7055C30.4898 27.5123 29.5177 27.4113 28.4785 27.4113C28.1627 27.4113 27.8412 27.4206 27.5135 27.4395C24.6526 27.6043 23.7039 28.9883 23.7699 30.2287Z" fill="#C3DBEA"/>
</svg>
