<svg width="54" height="54" viewBox="0 0 54 54" fill="none" xmlns="http://www.w3.org/2000/svg">
<g clip-path="url(#clip0_1_4)">
<path fill-rule="evenodd" clip-rule="evenodd" d="M11.9996 4.55029C16.4398 1.58349 21.6599 0 27 0C34.1608 0 41.0284 2.8446 46.0919 7.90808C51.1554 12.9716 54 19.8392 54 27C54 32.3401 52.4165 37.5602 49.4497 42.0004C46.4829 46.4405 42.266 49.9011 37.3324 51.9447C32.3988 53.9883 26.97 54.523 21.7325 53.4812C16.4951 52.4394 11.6841 49.8679 7.90808 46.0919C4.13206 42.3159 1.5606 37.5049 0.518798 32.2675C-0.523003 27.03 0.0117312 21.6012 2.0553 16.6676C4.09886 11.734 7.55951 7.51709 11.9996 4.55029ZM35.031 16.0901C36.11 17.3117 37.5487 18.1549 39.1376 18.4966C39.6623 18.6079 40.1971 18.6637 40.7333 18.663V24.1391C38.0105 24.1439 35.3546 23.2901 33.1396 21.6978V32.8739C33.1395 34.8866 32.5429 36.8537 31.4261 38.5239C30.3092 40.1941 28.7227 41.4918 26.869 42.2513C25.0154 43.0108 22.9788 43.1977 21.019 42.788C19.0593 42.3784 17.2655 41.3908 15.8664 39.9514C14.3994 38.4413 13.4384 36.5079 13.118 34.4216C12.7976 32.3353 13.1336 30.2004 14.0793 28.3156C15.0249 26.4309 16.5327 24.8904 18.3919 23.9098C20.251 22.9291 22.3685 22.5574 24.4481 22.8464V28.4457C23.5155 28.1473 22.5127 28.1554 21.5849 28.4688C20.6572 28.7822 19.8529 29.3845 19.2886 30.1885C18.7242 30.9926 18.4293 31.9564 18.4465 32.9404C18.4636 33.9243 18.792 34.8772 19.3841 35.6608C19.967 36.4315 20.7755 36.9992 21.6959 37.284C22.6163 37.5689 23.6023 37.5566 24.5154 37.2489C25.4284 36.9412 26.2227 36.3536 26.7865 35.5686C27.3503 34.7836 27.6553 33.8407 27.6587 32.8723V11H33.1396V11.7055C33.2894 13.3324 33.9521 14.8685 35.031 16.0901Z" fill="#C3DBEA"/>
</g>
<defs>
<clipPath id="clip0_1_4">
<rect width="54" height="54" fill="white"/>
</clipPath>
</defs>
</svg>
